<svg width="746" height="479" viewBox="0 0 746 479" xmlns="http://www.w3.org/2000/svg">
    <defs>
        <linearGradient x1="55.325%" y1="0%" x2="42.84%" y2="42.863%" id="tfbz8n3cqa">
            <stop stop-color="#52CE63" offset="0%"/>
            <stop stop-color="#51A256" offset="100%"/>
        </linearGradient>
        <linearGradient x1="55.331%" y1="0%" x2="42.832%" y2="42.863%" id="0je7461t1b">
            <stop stop-color="#52CE63" offset="0%"/>
            <stop stop-color="#51A256" offset="100%"/>
        </linearGradient>
        <linearGradient x1="50%" y1="0%" x2="50%" y2="58.811%" id="45viu7o43c">
            <stop stop-color="#8AE99C" offset="0%"/>
            <stop stop-color="#52CE63" offset="100%"/>
        </linearGradient>
        <linearGradient x1="51.438%" y1="17.473%" x2="44.349%" y2="100%" id="wmv6bsdohd">
            <stop stop-color="#FFE56C" offset="0%"/>
            <stop stop-color="#FFC63A" offset="100%"/>
        </linearGradient>
        <linearGradient x1="-.828%" y1="7.652%" x2="57.636%" y2="78.411%" id="2gkg1hbfze">
            <stop stop-color="#41D1FF" offset="0%"/>
            <stop stop-color="#BD34FE" offset="100%"/>
        </linearGradient>
        <linearGradient x1="43.376%" y1="2.242%" x2="50.316%" y2="89.03%" id="kybfhpo0bf">
            <stop stop-color="#FFEA83" offset="0%"/>
            <stop stop-color="#FFDD35" offset="8.3%"/>
            <stop stop-color="#FFA800" offset="100%"/>
        </linearGradient>
    </defs>
    <g fill="none" fill-rule="evenodd">
        <ellipse fill="#000" cx="373" cy="457" rx="373" ry="22"/>
        <g transform="translate(270)">
            <rect stroke="#2D397D" stroke-width="2" fill="#080F34" x="1" y="1" width="358" height="236" rx="7"/>
            <rect fill="#10194B" x="16" y="56" width="62" height="169" rx="2"/>
            <rect fill="#391190" x="23" y="63" width="48" height="48" rx="4"/>
            <g transform="translate(33 66)">
                <g fill-rule="nonzero">
                    <path d="M7.987 19.803c3.426-.316 4.618-3.092 5.004-7.286.386-4.194-2.44-8.009-3.606-7.901-1.165.107-4.842 4.52-5.228 8.714-.386 4.194.404 6.788 3.83 6.473z" fill="url(#tfbz8n3cqa)" transform="rotate(-38 10.416 11.276)"/>
                    <path d="M21.258 19.802c3.425.316 4.122-2.287 3.736-6.48-.386-4.195-3.97-8.6-5.134-8.707-1.166-.107-4.086 3.699-3.7 7.893.386 4.194 1.672 6.979 5.098 7.294z" fill="url(#0je7461t1b)" transform="rotate(52 18.57 14.341)"/>
                    <path d="M14.502 16.585c3.106 0 3.962-2.937 3.962-7.517S15.56 0 14.502 0c-1.056 0-4.047 4.488-4.047 9.068 0 4.58.942 7.517 4.047 7.517z" fill="url(#45viu7o43c)" transform="rotate(7 1.266 20.692)"/>
                </g>
                <path d="M13.68 38.249c6.552 0 11.865-1.863 11.865-10.312 0-8.45-5.313-15.383-11.865-15.383-6.551 0-11.86 6.934-11.86 15.383 0 8.449 5.309 10.312 11.86 10.312z" fill="url(#wmv6bsdohd)" fill-rule="nonzero"/>
                <ellipse fill="#EAADCC" fill-rule="nonzero" cx="20.143" cy="25.957" rx="1.854" ry="1"/>
                <ellipse fill="#EAADCC" fill-rule="nonzero" transform="rotate(7 7.744 25.125)" cx="7.744" cy="25.125" rx="1.671" ry="1"/>
                <path d="M15.189 25.313c-.504.404-1.085.57-1.744.495-.66-.074-1.148-.344-1.465-.81" stroke="#000" stroke-linecap="round" stroke-linejoin="round"/>
                <path d="M8.716 21.32c.461-.016.886.154 1.198.442a1.635 1.635 0 0 1 .082 2.333c-.292.31-.703.509-1.165.525a1.677 1.677 0 0 1-1.198-.442 1.636 1.636 0 0 1-.081-2.333c.291-.31.703-.509 1.164-.525z" fill="#000" fill-rule="nonzero"/>
                <path d="M8.803 22.7a.541.541 0 0 0-.562-.518c-.3.01-.536.26-.526.556.01.297.263.529.563.518.3-.01.536-.26.525-.556z" fill="#FFF" fill-rule="nonzero"/>
                <path d="M18.845 21.735c.462-.016.886.154 1.199.442a1.635 1.635 0 0 1 .081 2.333c-.292.309-.703.508-1.165.524a1.677 1.677 0 0 1-1.198-.442 1.635 1.635 0 0 1-.081-2.333c.292-.309.703-.508 1.164-.524z" fill="#000" fill-rule="nonzero"/>
                <g fill="#FFF" fill-rule="nonzero">
                    <path d="M10.211 22.92a1.43 1.43 0 0 1-1.388 1.47 1.43 1.43 0 0 1-1.487-1.37 1.43 1.43 0 0 1 1.388-1.47 1.43 1.43 0 0 1 1.487 1.37zm.467-.017a1.893 1.893 0 0 0-1.97-1.813 1.893 1.893 0 0 0-1.838 1.946 1.893 1.893 0 0 0 1.97 1.814 1.893 1.893 0 0 0 1.838-1.947zM20.34 23.334a1.43 1.43 0 0 1-1.388 1.47 1.43 1.43 0 0 1-1.487-1.37 1.43 1.43 0 0 1 1.388-1.47 1.43 1.43 0 0 1 1.487 1.37zm.467-.016a1.893 1.893 0 0 0-1.97-1.814A1.893 1.893 0 0 0 17 23.451a1.893 1.893 0 0 0 1.97 1.814 1.893 1.893 0 0 0 1.838-1.947z"/>
                    <path d="M18.932 23.115a.541.541 0 0 0-.562-.519c-.3.01-.536.26-.526.557.01.296.263.528.563.518.3-.01.536-.26.525-.556z"/>
                </g>
                <g>
                    <g stroke="#ECB732">
                        <path d="m5.653 28.913 5.775 5.892M10.648 29.602 6.98 33.428"/>
                    </g>
                    <g stroke="#ECB732">
                        <path d="m23.37 28.913-5.776 5.892M18.374 29.602l3.668 3.826"/>
                    </g>
                    <g stroke="#FFC73B">
                        <path d="m16.844 15.864-3.75 3.824M16.079 19.688l-3.75-3.824"/>
                    </g>
                </g>
            </g>
            <g transform="translate(23 113)" fill="#1F2650">
                <rect width="48" height="15" rx="2"/>
                <rect y="34" width="48" height="15" rx="2"/>
                <rect y="17" width="48" height="15" rx="2"/>
                <rect y="51" width="48" height="15" rx="2"/>
                <rect y="68" width="48" height="15" rx="2"/>
            </g>
            <rect fill="#10194B" x="86" y="56" width="62" height="169" rx="2"/>
            <rect fill="#391190" x="93" y="97" width="48" height="48" rx="4"/>
            <g fill-rule="nonzero">
                <path d="m29.9 4.446-14.092 25.2a.766.766 0 0 1-1.334.005L.103 4.448a.766.766 0 0 1 .8-1.133L15.01 5.837c.09.016.182.015.272 0l13.813-2.518a.766.766 0 0 1 .806 1.127z" fill="url(#2gkg1hbfze)" transform="translate(102 106)"/>
                <path d="M21.73.007 11.302 2.051a.383.383 0 0 0-.31.353l-.64 10.835a.383.383 0 0 0 .468.396l2.903-.67a.383.383 0 0 1 .462.45l-.863 4.224a.383.383 0 0 0 .486.443l1.794-.545a.383.383 0 0 1 .486.444l-1.37 6.635c-.086.415.466.641.696.286l.154-.238 8.498-16.96a.383.383 0 0 0-.415-.547l-2.99.577a.383.383 0 0 1-.44-.482L22.172.489a.383.383 0 0 0-.442-.482z" fill="url(#kybfhpo0bf)" transform="translate(102 106)"/>
            </g>
            <g transform="translate(93 63)" fill="#1F2650">
                <rect width="48" height="15" rx="2"/>
                <rect y="84" width="48" height="15" rx="2"/>
                <rect y="118" width="48" height="15" rx="2"/>
                <rect y="17" width="48" height="15" rx="2"/>
                <rect y="101" width="48" height="15" rx="2"/>
                <rect y="135" width="48" height="15" rx="2"/>
            </g>
            <rect fill="#10194B" x="226" y="56" width="118" height="58" rx="2"/>
            <rect fill="#391190" x="292" y="62" width="46" height="46" rx="4"/>
            <g fill-rule="nonzero">
                <path fill="#3FB27F" d="m299 71.249 16 27.623 16-27.623h-6.4L315 87.823l-9.68-16.574z"/>
                <path fill="#34516D" d="m305.275 71.171 9.7 16.906 9.62-16.906h-5.932l-3.688 6.502-3.768-6.502z"/>
            </g>
            <rect fill="#1F2650" x="229" y="62" width="58" height="46" rx="4"/>
            <rect fill="#10194B" x="226" y="121" width="118" height="57" rx="2"/>
            <rect fill="#10194B" x="156" y="56" width="62" height="169" rx="2"/>
            <rect fill="#1F2650" x="163" y="73" width="48" height="48" rx="4"/>
            <rect fill="#2C387B" x="318" y="11" width="26" height="26" rx="6"/>
            <path d="M334.177 20.197c0 1.766-1.423 3.198-3.177 3.198s-3.176-1.432-3.176-3.198c0-1.765 1.422-3.197 3.176-3.197 1.754 0 3.177 1.432 3.177 3.197M337 29.974c0-3.241-2.61-5.869-5.83-5.869h-.34c-3.22 0-5.83 2.627-5.83 5.868v.001c0 .29.234.526.522.526h10.955a.524.524 0 0 0 .523-.526z" fill="#A4AACA" fill-rule="nonzero"/>
            <path stroke="#0E1742" stroke-linecap="square" d="M16.5 46.5h328"/>
            <g fill-rule="nonzero">
                <path d="M22.499 26.599c-1.688-8.346-.089-13.823-.089-13.823s-.428 3.334 2.935 8.707c-.042 6.662 1.269 10.137 1.269 10.137l.27-.198-.27.234S24.62 30.03 22.499 26.6zM30.448 25.417c.807.813 1.56 1.375 2.104 1.643l-.01-.005s.611.22.719.073c.745-.788.927-2.257.43-5.019-2.838-1.62-3.197-4.147-3.197-4.147s-.51 3.508-.046 7.455z" fill="#364FDE"/>
                <path d="M22.41 12.776s-2.335 7.998 1.617 19.392a.822.822 0 0 1-.288.913l-4.167 2.921c-.396.292-.97.11-1.15-.365-1.114-3.031-4.168-13.074-1.078-24.066.144-.438.61-.694 1.042-.511l4.024 1.716z" fill="#56D8FF"/>
                <path d="m30.387 28.844-3.773 2.776s-2.012-5.332-.97-15.448a.78.78 0 0 1 1.185-.584l3.665 2.374s-.718 4.93.324 9.677c.108.475-.072.95-.431 1.205zM37.357 22.673l-3.485-2.301c-.216-.146-.54.073-.467.329.826 3.688.718 5.514-.144 6.427-.108.146-.719-.073-.719-.073.575.292.719.146.719.146.575-.438 2.73-2.009 4.096-2.958.539-.402.539-1.205 0-1.57z" fill="#667DFF"/>
            </g>
            <path d="M241.745 197.303s-17.168-11.83-35.093-12.186c-20.77-.4-42.475 10.63-42.475 10.63l-.667 40.74h89.888l-11.653-39.184z" fill="#4F1A23"/>
            <path d="M174.851 195.435s1.068 13.077-11.03 24.062M198.602 216.651l5.782 19.792M218.572 194.946s3.158 19.303 22.283 24.462M232.85 195.658l13.788 40.43" stroke="#2E0D13" stroke-linecap="round" stroke-linejoin="round"/>
            <path d="M162.976 131.478c3.202 15.655-1.78 35.136-1.69 44.699.222 21.438 2.935 21.882 2.935 21.882s2.847-4.403 39.229-3.825c34.559.534 38.828 4.537 38.828 4.537s5.382-10.274-.355-30.778c-5.694-20.281 3.869-31.49 7.516-35.67 5.515-3.736 9.118-10.052 9.118-17.257 0-11.298-8.984-20.504-20.193-20.86h-.889l-61.29.133h-2.979v.178c-10.274 1.29-18.191 10.052-18.191 20.682 0 6.45 3.38 12.454 7.961 16.279z" fill="#FFA956"/>
            <path d="M135 162.478c0 8.45 6.85 15.344 15.345 15.344 8.005 0 14.543-6.093 15.3-13.92l.756-7.073c.133-.667.222-1.378.222-2.09 0-5.915-4.803-10.763-10.763-10.763-2.046 0-3.914.578-5.56 1.556l-7.027 3.203.089.044c-4.937 2.58-8.362 7.739-8.362 13.699z" fill="#FFACAB"/>
            <path d="M153.102 146.956c3.914-1.201 9.162.934 13.032 4.536.311 1.023.49 2.09.49 3.247 0 .712-.09 1.423-.223 2.09l-.756 7.072c-.623 6.716-5.56 12.142-11.965 13.566-8.984-4.937-8.85-28.02-.578-30.511z" fill="#010000" opacity=".279"/>
            <path d="m154.97 116.89 8.05 40.518 20.95-22.95c7.516-3.158 12.764-10.586 12.764-19.215 0-11.519-9.34-20.86-20.86-20.86s-20.86 9.341-20.86 20.86c0 .579.045 1.157.09 1.735l-.134-.089z" fill="#FFA956"/>
            <g>
                <path d="m235.295 135.614 11.342 15.522c-.089-2.49 4.848-8.05 11.92-13.21 7.872-5.737 15.3-8.984 16.723-7.027l-.044-.044-21.66-29.221c-3.781-4.36-9.43-7.028-15.656-7.028-11.387 0-20.593 9.207-20.593 20.593 0 10.452 7.828 19.125 17.968 20.415z" fill="#FFA956"/>
                <path fill="#010000" d="M233.072 117.868 206.43 137.57l1.156 1.557 26.642-19.704z"/>
                <path d="M258.423 137.749c-7.872 5.737-13.12 12.009-11.697 13.966 1.423 1.957 8.984-1.112 16.857-6.894 7.872-5.738 13.12-12.01 11.697-13.966-1.423-1.957-8.984 1.156-16.857 6.894z" fill="#000" fill-rule="nonzero"/>
                <path d="M249.395 149.98c.089.089.178.178.266.222l8.985 14.811c2.135 5.515 7.516 9.43 13.788 9.43 8.139 0 14.766-6.628 14.766-14.767 0-2.847-.8-5.515-2.224-7.784l.045-.044-11.876-18.591c-.089-.09-.178-.356-.267-.445-1.156-1.601-7.383.934-13.876 5.648-6.45 4.804-10.764 9.919-9.607 11.52z" fill="#FFACAB"/>
                <path stroke="#671D2B" stroke-linecap="round" stroke-linejoin="round" d="m235.295 135.614 11.342 15.522"/>
                <path d="M204.74 137.66s10.14-.178 12.676.178c3.647.489 6.582 1.734 8.406 3.424 9.073 8.629 13.165 9.207 13.165 9.207l2.847 11.964s.044 7.606-8.407 7.384c-5.782-.178-10.363-.178-14.366-7.339-.8-1.379-2.357-4.225-7.56-4.225-14.59-3.425-11.61-19.526-6.761-20.593z" fill="#FFACAB"/>
                <path d="m221.374 150.425 41.764-2.224a14.791 14.791 0 0 1 9.296-3.291c8.139 0 14.766 6.627 14.766 14.766 0 8.14-6.627 14.766-14.766 14.766-1.29 0-2.491-.178-3.692-.445l-35.893-4.314-11.475-19.258z" fill="#FFACAB"/>
                <path stroke="#F28586" stroke-linecap="round" stroke-linejoin="round" d="M215.637 147.267h-11.52M216.348 152.204h-11.519M214.836 142.063h-11.519"/>
                <path d="M275.592 150.069s-2.402-2.268-6.983-2.357c-4.804-.134-31.534 2.09-31.534 2.09" stroke="#D87141" stroke-linecap="round" stroke-linejoin="round"/>
                <path fill="#3C3C3C" d="M194.821 113.553h-50.659l24.24 63.069h50.615z"/>
                <path d="m159.106 111.196 2.447 6.36h18.013l-2.446-6.36h-4.804c-.89-2.09-3.247-3.78-5.337-3.78-2.135 0-3.202 1.69-2.535 3.78h-5.338z" fill="#717171"/>
            </g>
            <g>
                <path d="M152.746 162.478c2.802 7.428 9.207 6.494 11.787 4.092-1.246-3.336-3.247-7.472-.4-9.652-5.783 3.025-8.718-12.765-13.788-12.498-3.559.223-2.09 6.227 2.401 18.058z" fill="#FFACAB"/>
                <path d="m166.4 133.123-12.097 6.85-.934.578-.49.267-.222.133-.311.178c-.845.534-1.112.89-1.78 1.646-4.358 3.602-.444 12.097 4.76 3.202l.133-.133.223-.178.445-.312.89-.667 11.652-7.694c1.067-.8 1.379-2.269.712-3.336-.667-.89-1.957-1.156-2.98-.534z" fill="#FFACAB" fill-rule="nonzero"/>
                <path d="m171.338 139.617-13.077 4.759-1.023.4-.533.178-.267.089-.311.133c-.934.4-1.824.445-2.625 1.068-3.602 2.668 2.18 5.16 2.18 5.16l4.27-2.225 12.987-5.337c1.2-.623 1.734-2.001 1.245-3.158-.49-1.067-1.734-1.512-2.846-1.067z" fill="#FFACAB" fill-rule="nonzero"/>
                <path d="m171.338 144.732-13.077 4.759-1.023.4s-2.713.8-3.29 2.09c0 4.715 5.158 3.158 5.158 3.158l.979-.489 12.81-5.649c1.2-.622 1.734-2.001 1.245-3.157-.445-1.068-1.69-1.513-2.802-1.112z" fill="#FFACAB" fill-rule="nonzero"/>
                <path d="m169.336 150.647-12.81 5.115.624 5.293.978-.49 12.765-5.648c1.2-.623 1.734-2.002 1.245-3.158-.489-1.067-1.69-1.512-2.802-1.112z" fill="#FFACAB" fill-rule="nonzero"/>
                <path d="M170.804 154.917c1.2-.623 1.735-2.002 1.245-3.158-.444-1.067-1.69-1.512-2.802-1.067l-11.92 4.58c-.355.134-.667.312-1.023.534l-1.2.801M172.894 143.842c1.201-.623 1.735-2.001 1.246-3.158-.445-1.067-1.69-1.512-2.802-1.067l-13.077 4.759-2.179 1.023s-2.713 1.067-3.247 2.357M172.894 149.001c1.201-.622 1.735-2.001 1.246-3.157-.445-1.068-1.69-1.513-2.802-1.068l-13.077 4.76-.489.177s-3.202 1.112-3.736 2.357" stroke="#F28586" stroke-linecap="round" stroke-linejoin="round"/>
            </g>
            <g>
                <path d="M192.02 56.534c3.29 2.224 4.091 6.894 1.823 10.363-2.268 3.514-6.76 4.492-10.007 2.268-3.292-2.223-4.092-6.894-1.824-10.363 2.224-3.469 6.716-4.492 10.007-2.268z" fill="#010000"/>
                <path d="M217.193 96.296c-.044 1.913-5.87 4.003-12.942 4.715-7.072.711-12.765-.223-12.72-2.135 0-.222.088-.445.222-.623h-.178l4.536-29.443 20.638-.356.31 27.353c.09.222.134.356.134.49z" fill="#FFACAB"/>
                <path d="M192.197 94.695C210.833 88.29 210.3 74.058 210.3 74.058l-15.478 3.38-2.624 17.257z" fill="#010000"/>
                <path d="M191.397 82.508a9.162 9.162 0 0 0 4.492 2.358c1.69.356 3.425.311 5.07-.223 4.626-1.512 11.12-5.159 14.544-14.143 6.627 2.046 11.43-7.962 7.428-10.675-2.49-1.645-5.827.134-7.606 2.002a2.444 2.444 0 0 0-.311.4c.044-5.426 6.182-11.164 3.069-14.188-16.457-16.19-27.887-3.825-30.289-1.468-.934 3.514-1.245 7.205-2.18 12.765-2.045 11.43 1.78 19.436 5.783 23.172zm23.884-20.637s0-.044 0 0c.044-.089.044-.089 0 0z" fill="#FFACAB"/>
                <path d="M203.672 56.356c-.667-.044-1.29.89-1.334 2.046-.044 1.156.49 2.09 1.156 2.135.668.044 1.29-.89 1.335-2.046.044-1.156-.49-2.09-1.157-2.135zM190.24 55.778c-.667-.045-1.29.89-1.334 2.046-.044 1.156.49 2.09 1.156 2.135.668.044 1.29-.89 1.335-2.046.044-1.157-.49-2.09-1.157-2.135z" fill="#010000"/>
                <path d="M184.547 46.971c1.424 7.428 2.624 1.868 2.624 1.868 2.135 1.557 10.764-.934 17.747-4.447 6.983-3.514 11.341-4.092 10.674 4.937-.445 6.093 10.319-11.475 3.825-11.208 1.957-12.499-13.565-5.249-13.565-5.249s-4.003-5.826-10.097-5.87c-5.693-.09-10.096 4.491-9.384 9.918-4.181-.09-7.472.756-1.824 10.051z" fill="#F78F29"/>
                <path d="M188.239 49.284c2.402.89 7.961-.622 16.634-4.18 7.205-2.98 10.185-.312 9.83 8.717-.09 2.09.222 8.895-.668 10.052.979-2.09 3.292-4.404 7.295-4.715-1.69-5.604 7.828-21.438-1.913-20.949.267-1.69.312-2.668.134-4.047-.312-.978-3.203-6.093-11.52 4.314-5.915 7.383-14.633 11.475-19.792 10.808zm-3.692-2.313c.445 4.982 1.69 8.629 1.69 8.629l1.38-6.538c-1.824-.845-2.625-1.557-3.07-2.09z" fill="#C13C2B"/>
                <path d="M194.199 71.567s4.58.712 7.56-2.446M193.22 51.953c-2.49-.8-5.87.133-6.627 1.067M208.342 53.332c-1.69-1.246-5.114-2.491-8.895-1.424" stroke="#000" stroke-linecap="round" stroke-linejoin="round"/>
                <path d="m181.923 54.132-.044 1.557 1.067.133c.267.579.445 1.29.445 2.046.4-.711 1.112-1.823 2.935-2.713l3.38-1.067c.09 0 .179-.045.267-.045h-.088.044l-8.006.09z" fill="#010000"/>
                <path d="M194.555 56.578c-1.068-1.245-2.891-2.09-4.937-2.134-3.336-.09-6.005 1.957-6.05 4.58 0 2.58 2.67 4.76 6.005 4.849a6.596 6.596 0 0 0 3.158-.668M203.272 54.888c3.336.134 6.182 2.402 6.36 4.982.223 2.624-2.313 4.58-5.648 4.447-3.336-.133-6.183-2.401-6.36-4.981-.223-2.58 2.312-4.581 5.648-4.448z" stroke="#000" stroke-linecap="round" stroke-linejoin="round"/>
                <path d="M194.644 56.667s.266 2.313-1.735 6.138c-1.824 3.47.4 5.204 4.359 4.092" stroke="#000" stroke-width="2" stroke-linecap="round" stroke-linejoin="round"/>
                <path d="m210.967 55.155.133 1.557-1.067.089a4.86 4.86 0 0 0-.312 2.001c-.445-.711-1.245-1.912-3.158-2.935l-3.469-1.335c-.089-.044-.178-.044-.267-.088h.09-.045l8.095.711zM222.22 56.534c3.29 2.224 4.091 6.894 1.823 10.363-2.269 3.514-6.76 4.492-10.008 2.268-3.29-2.223-4.091-6.894-1.823-10.363 2.268-3.469 6.76-4.492 10.007-2.268z" fill="#010000"/>
                <path d="M190.685 80.285s23.484 2.179 28.643-14.945" stroke="#000" stroke-linecap="round" stroke-linejoin="round"/>
                <path d="M223.242 65.474c-.711 1.067-1.734 1.823-2.846 2.135-.09.267-.223.533-.445.89-3.247 5.203-6.716 7.65-6.716 7.65l-1.468-1.335-.311-.89s-.178.178 1.468-2.046c2.001-2.713 2.446-4.892 2.49-6.137-1.112-1.602-1.156-3.87 0-5.649 1.468-2.313 4.448-2.98 6.627-1.512 2.135 1.512 2.669 4.581 1.201 6.894z" fill="#21283D"/>
                <path d="M193.354 81.441a21.86 21.86 0 0 0-.756.845l-.045.045s-.044 0-.044.044c-.312.267-.668.445-1.112.445h-3.38c-.979 0-1.824-.8-1.913-1.78-.045-.4.089-.8.311-1.067.09-.178.8-.934.979-1.067.311-.267.667-.4 1.112-.4h3.38c.978 0 1.824.8 1.912 1.779 0 .444-.177.845-.444 1.156z" fill="#010000"/>
                <path d="M219.195 37.987c.133-.222.222-.445.311-.712l2.49 1.068v.044c6.05 2.936 6.45 13.521.535 25.085-.09.178-.178.312-.267.49l-5.738-1.112a26.76 26.76 0 0 0 .845-1.557c5.026-9.874 5.515-18.947 1.824-23.306z" fill="#21283D"/>
            </g>
        </g>
        <g fill="#070D29">
            <path d="M354.885 457.197c-5.294 0-9.626-4.292-9.626-9.626 0-1.725.441-3.329 1.243-4.733l-1.925-1.925c-.601.2-1.283.361-1.965.361a5.932 5.932 0 0 1-5.936-5.856v-22.14h3.49v-1.524a2.46 2.46 0 0 0-1.244-2.126l-18.33-10.307h-16.765v13.957h3.209v22.14a5.88 5.88 0 0 1-2.447 4.653h2.888v17.206H294.602v-17.166h2.808a5.94 5.94 0 0 1-2.447-4.653v-22.14h3.37v-13.957h-16.525l-18.33 10.308a2.46 2.46 0 0 0-1.243 2.125v1.524h3.489v22.14c-.08 3.249-2.687 5.856-5.936 5.856-.682 0-1.364-.12-1.965-.36l-1.926 1.924a9.468 9.468 0 0 1 1.244 4.733c0 5.294-4.292 9.626-9.626 9.626-5.295 0-9.626-4.291-9.626-9.626 0-5.294 4.291-9.626 9.626-9.626 1.845 0 3.61.521 5.053 1.444l1.725-1.725c-.28-.682-.481-1.444-.481-2.246h-.04v-22.14h3.329v-1.524c0-2.727 1.484-5.214 3.85-6.578l18.891-10.668c.401-.2.802-.321 1.244-.321h9.505v-12.955h7.701V336.19h-10.428l-1.444-4.091h-5.334l-7.942-5.134h11.471l-1.965-5.535h36.699l-1.965 5.535h11.43l-7.94 5.134h-5.255l-1.444 4.09h-10.388v45.083h7.7v12.955H321.275c.441 0 .883.12 1.244.32l18.89 10.67a7.554 7.554 0 0 1 3.851 6.577v1.524h3.33v22.14h-.041c0 .802-.2 1.564-.481 2.246l1.724 1.725a9.52 9.52 0 0 1 5.054-1.444c5.294 0 9.626 4.292 9.626 9.626.04 5.254-4.251 9.586-9.586 9.586z" fill-rule="nonzero"/>
            <path d="M308.84 233.632c-10.387-1.123-27.714-1.844-47.528 2.046-4.532.882-7.58 5.214-6.939 9.786 2.006 14.36.08 30.603-3.409 44.28-4.332 16.685-4.211 44.48 29.2 40.43 33.249-4.051 47.848 3.69 47.848 3.69 24.346-2.086 25.75-2.487 40.31-2.888-10.99-12.193-32.649-17.407-38.665-22.782-5.696-5.094-3.73-9.546-9.426-63.09-.641-6.017-5.374-10.83-11.39-11.472z"/>
        </g>
        <path d="M369.525 263.794a11.743 11.743 0 0 1-11.752 11.752 11.654 11.654 0 0 1-10.268-6.097l-25.91-42.234a13.033 13.033 0 0 1-2.968-8.302c0-7.22 5.856-13.116 13.116-13.116a13.03 13.03 0 0 1 12.553 9.426l22.541 40.99c1.645 2.086 2.688 4.693 2.688 7.581z" fill="#BB3354"/>
        <path d="M375.982 246.708h.12l-7.018 20.215c-1.364 4.973-5.896 8.623-11.311 8.623a11.743 11.743 0 0 1-11.752-11.752c0-2.126.562-4.091 1.564-5.816l4.773-11.27c-.04-.08-.04-.16-.04-.24.24-1.044 5.776-1.926 12.354-1.926 6.577 0 11.711.842 11.43 1.925 0 .08-.04.16-.12.24z" fill="#BB3354"/>
        <path stroke="#8E1C3D" stroke-linecap="round" stroke-linejoin="round" d="m347.465 258.179 4.893-11.511"/>
        <path d="M364.672 244.582c6.577 0 11.711.842 11.43 1.925-.24 1.043-5.775 1.926-12.353 1.926-6.578 0-11.712-.843-11.43-1.926.24-1.083 5.775-1.925 12.353-1.925z" fill="#000" fill-rule="nonzero"/>
        <path d="m377.586 236.64-3.208 9.105h-.08c0 .04.04.08 0 .16-.2.883-4.934 1.605-10.509 1.605s-9.947-.722-9.706-1.604c0-.04.04-.12.08-.16l3.209-9.065h20.214v-.04z" fill="#ECE6E8"/>
        <path d="M367.76 234.956c5.575 0 9.947.722 9.706 1.604-.2.883-4.933 1.605-10.508 1.605-5.575 0-9.947-.722-9.706-1.605.24-.882 4.933-1.604 10.508-1.604z" fill="#000" fill-rule="nonzero"/>
        <path d="M397.64 195.73c-.641-.682-1.724-.682-2.406-.04-1.845 1.805-3.73 3.57-5.615 5.374l1.243-7.62a1.755 1.755 0 0 0-1.243-1.925 1.718 1.718 0 0 0-2.086 1.203l-2.847 11.15-2.768-6.377c-.32-.762-1.203-1.203-2.045-.963a1.698 1.698 0 0 0-1.163 2.086l2.687 9.024-4.893 2.888c0-.04.04-.04.04-.08.882-1.765 1.564-3.49 2.206-5.335.24-.681 0-1.484-.642-1.925-.762-.561-1.845-.36-2.407.401l-.04.08a46.308 46.308 0 0 1-3.248 4.051 17.806 17.806 0 0 1-1.765 1.725c-.281.28-.602.481-.883.722-.32.2-.521.32-1.002.682-1.765 1.283-3.41 2.928-4.693 5.054-1.284 2.125-2.046 4.893-1.805 7.78l.12 1.204v.04l-3.409 10.669c-.08.08-.16.12-.16.2-.2.762 3.57 1.404 8.382 1.404 4.813 0 8.864-.642 9.065-1.404.04-.12-.04-.24-.2-.36l2.085-13.116a99.391 99.391 0 0 0 3.37-4.693c.48-.561.922-1.083 1.403-1.644 1.684-2.006 3.369-4.011 5.013-6.016 3.29-4.051 6.578-8.062 9.827-12.153.521-.522.481-1.484-.12-2.086z" fill="#FFACAB"/>
        <path d="M365.394 220.597s-.04-4.492 5.294-7.059c3.81-1.845 10.749-5.495 10.749-5.495M384.646 204.153l2.928-11.391c.24-.923 1.163-1.444 2.085-1.203a1.671 1.671 0 0 1 1.244 1.925l-2.487 15.08c-.04.201-.12.402-.2.602l-.081.16h0c-1.003 1.525-2.727 3.45-4.372 5.095" stroke="#F28586" stroke-linecap="round" stroke-linejoin="round"/>
        <path d="m381.477 208.324-2.767-9.626a1.65 1.65 0 0 1 1.163-2.086c.842-.24 1.724.16 2.045.963l4.452 10.228c.24.561.2 1.163-.04 1.684l-.12.281c-.321.722-.642 1.283-.963 1.885-.32.602-.642 1.203-1.002 1.805a162.472 162.472 0 0 1-2.126 3.49" stroke="#F28586" stroke-linecap="round" stroke-linejoin="round"/>
        <g>
            <path d="M332.264 232.309c-1.805 12.554-10.549 27.635-41.994 28.276-6.898.12-5.535-15.963-3.409-28.637-5.936-1.123-10.548-6.177-10.789-12.394-.28-7.26 5.415-13.396 12.795-13.677.48 0 .962 0 1.444.04 0 0 27.273.161 40.228.161 7.34-.28 13.557 5.375 13.838 12.634.28 6.979-5.094 12.955-12.113 13.597z" fill="#BB3354"/>
            <path d="m336.556 222.402 5.174 10.348c2.326 4.653 2.566 10.067.721 14.96L330.3 280.44l-41.312.12c-.04 0-21.458-81.1 47.569-58.158z" fill="#BB3354"/>
            <path d="m336.556 222.402 5.174 10.348c2.326 4.653 2.566 10.067.721 14.96L330.3 280.44" stroke="#8E1C3D" stroke-linecap="round" stroke-linejoin="round"/>
        </g>
        <g>
            <path d="M365.835 321.15c-10.188 18.248-29.961 29.72-38.103 21.016v.08l-11.552-11.912-30.723-5.736c-14.238-1.564-20.776-15.481-13.115-27.995l16.645-25.75c-.12-.08-.2-.16-.2-.24 0-1.124 10.949-2.006 24.466-2.006 13.516 0 24.466.882 24.466 2.005v.04h.12l-3.41 17.448 1.525.12c3.57-2.447 7.821-3.49 12.032-2.607 2.166.441 4.092 1.404 5.816 2.687 5.495-.4 10.549 1.725 12.474 4.573 5.856 8.463 5.415 17.808-.441 28.276z" fill="#401C1C"/>
            <path d="M367.72 293.835a8.52 8.52 0 0 0-1.564-1.644c-2.046-2.126-4.613-3.69-7.58-4.292-8.905-1.885-17.97 5.054-20.175 15.562-.241 1.123-.682 4.573-.763 5.255-1.965 14.64-14.398 21.056-9.265 31.364 5.736 11.471 28.157.722 38.866-18.49 5.735-10.227 6.176-19.412.48-27.755z" fill="#000" fill-rule="nonzero"/>
            <path d="M265.363 325.922s24.907-11.872 35.376-9.024c14.72 4.05 15.642 13.516 15.642 13.516s-30.603-4.652-51.018-4.492z" fill="#070D29"/>
        </g>
        <g>
            <path d="M301.54 223.244c-.52 2.086-11.47 46.807-11.47 46.807h-.08c-.482 5.896-5.375 10.548-11.391 10.548-6.337 0-11.431-5.133-11.431-11.43 0-.843.08-1.645.24-2.407l8.985-51.218.12.04c1.524-5.575 6.578-9.666 12.634-9.666 7.22 0 13.116 5.855 13.116 13.115 0 1.404-.28 2.848-.722 4.211z" fill="#BB3354"/>
            <path stroke="#8E1C3D" stroke-linecap="round" stroke-linejoin="round" d="m298.573 235.317-5.735 23.424"/>
            <path d="M295.324 280.64h-.04l-16.043-.12c-.201 0-.442.04-.682.04-6.337 0-11.431-5.134-11.431-11.432 0-6.297 5.134-11.43 11.43-11.43 7.06.4 12.916.561 16.806.641 2.888-.08 5.254 4.813 5.214 10.99 0 6.137-2.366 11.23-5.254 11.31z" fill="#BB3354"/>
            <path d="M273.385 258.9a11.32 11.32 0 0 1 5.174-1.243c7.059.402 12.915.562 16.805.642" stroke="#8E1C3D" stroke-linecap="round" stroke-linejoin="round"/>
            <path d="M295.364 258.3c2.888-.081 5.254 4.812 5.214 10.989 0 6.177-2.366 11.23-5.254 11.31-2.888.08-5.254-4.813-5.214-10.99 0-6.136 2.366-11.19 5.254-11.31z" fill="#000" fill-rule="nonzero"/>
            <path d="m304.509 259.502-.722 20.616h-7.62v-.08c-.08 0-.161.04-.241.04-2.607.08-4.693-4.572-4.693-10.388s2.126-10.589 4.733-10.709h.2v-.08l8.343.601z" fill="#ECE6E8"/>
            <path d="M304.67 259.342c2.526-.08 4.572 4.412 4.532 10.027 0 5.615-2.046 10.268-4.573 10.348-2.527.08-4.572-4.412-4.532-10.027 0-5.615 2.045-10.268 4.572-10.348z" fill="#000" fill-rule="nonzero"/>
            <path d="m346.783 261.307-2.727 4.452.521 5.455c-.28.16-8.503 6.578-19.332 6.538-5.695 0-7.62-2.487-7.62-2.487s-4.693 1.324-11.913 2.848c-.28.16-.561.24-.842.24-2.166.08-3.93-3.81-3.89-8.623 0-4.853 1.764-8.824 3.93-8.904.24 0 .481.04.722.12 23.905-.32 41.151.361 41.151.361z" fill="#FFACAB"/>
            <path d="M342.291 263.152c4.613-1.965 6.658-4.01 10.027-3.49 3.129.482 5.014 4.292 11.872 14.079 1.324 2.126-1.524 4.211-3.97 1.725-.923.922-2.768 1.083-3.41.36-1.083-1.243-7.42-6.577-8.543-7.82-.962-1.083-1.925-1.765-3.61-1.364-1.323.32.642 1.965-.762 2.567h-.04c-1.764.762-3.77 0-4.492-1.725-.722-1.685-2.166-1.845-.4-2.607.16-.08 2.205 1.123 3.328-1.725z" fill="#FFACAB" fill-rule="nonzero"/>
            <path d="M332.224 266.32c4.211-1.684 7.34-3.087 8.623-2.847 2.126.522 3.129 1.324 3.53 1.925 1.043 1.404 2.968 5.535 3.93 6.98.963 1.403 1.885 2.847 2.808 4.29.561.883.28 2.046-.602 2.608-.802.521-1.885.36-2.486-.32-1.083-1.244-2.247-2.528-3.37-3.771-1.123-1.244-2.286-2.447-3.409-3.61l-.842-.842-.401-.361-.2-.16-.08-.08-.041-.04s-.04 0 0 0l.08.08c.482.4.682.36.722.4.04.04-.04.04-.12.04-.2.04-.522.08-.842.16-1.324.322-2.968.923-4.372 1.525h-.04c-1.765.762-3.77 0-4.493-1.725-.721-1.684.12-3.69 1.886-4.452.12 0-.442.241-.281.2z" fill="#FFACAB" fill-rule="nonzero"/>
            <path d="M347.625 261.588c2.206.2 3.29.882 3.81 1.444 2.247 2.286 8.063 9.867 8.303 10.147.682.762.562 1.966-.24 2.648-.762.641-1.805.641-2.527.04h0c-1.123-.963-5.856-5.335-7.862-7.06-.24-.24-1.524-1.564-3.69-1.844M340.847 263.473c2.126.522 3.129 1.324 3.53 1.925 1.043 1.404 2.968 5.535 3.93 6.98.963 1.403 1.885 2.847 2.808 4.29.561.883.28 2.046-.602 2.608-.802.521-1.885.36-2.486-.32h0c-1.083-1.244-2.247-2.528-3.37-3.771-1.123-1.244-2.286-2.447-3.409-3.61" stroke="#F28586" stroke-linecap="round" stroke-linejoin="round"/>
        </g>
        <g>
            <path d="M329.697 159.713c36.86 32.568 6.618 28.517 6.618 28.517 1.684-1.605 4.372-5.696.04-16.004 5.695 22.622-13.918 16.605-13.918 16.605l.442-3.97c2.486-.401-11.23-4.452-11.23-4.452 1.162 2.246.44 7.059 1.523 9.305 0 0-11.47 2.486-23.583-1.204-20.536-6.297 3.168-21.177 3.088-23.503-.16-4.372-.481-9.947 2.487-14.158-10.228-3.049-4.533-12.594-.642-10.87 0 0-.24-5.094 2.848-7.46a8.454 8.454 0 0 1 5.855-2.326c2.648 0 4.974 1.203 6.538 3.088 2.727 2.888 2.326 8.062 1.484 11.832 27.474 3.008 27.394 10.91 21.258 15.482-1.444 1.404-2.728-.922-2.808-.882z" fill="#301010"/>
            <path d="M313.814 167.413c5.695 0 4.813 2.888 4.813 11.471v3.69c-3.209-1.123-6.979-2.206-6.979-2.206 1.163 2.247.441 7.06 1.524 9.306 0 0-5.896 1.283-13.677.641-.682-.922-1.163-2.005-1.363-3.329-1.284-7.62 9.947-19.573 15.682-19.573z" fill="#000" fill-rule="nonzero" opacity=".2"/>
            <path fill="#EBE6E9" d="m312.771 215.905 5.776-12.193 8.503 10.95-3.289 19.13z"/>
            <path d="M300.578 206.118c-.24.04 3.49-.602 1.123 1.123-2.206 1.564-4.372 2.687 2.647 7.781 14.4 3.169 17.408-1.885 17.408-1.885s4.572 2.928 8.182 1.484c3.57-1.444-2.607-6.096-8.664-7.059-9.305-1.524-20.696-1.444-20.696-1.444z" fill="#000" fill-rule="nonzero"/>
            <path d="M300.578 199.3c-.24.08-3.65 3.449-6.016 6.337-2.206 2.687-.682 6.417 8.864 9.104 13.517 3.81 16.926-3.048 18.089-5.013 0 0 5.455 6.899 9.024 4.452 3.57-2.447-3.329-10.75-9.345-12.434-9.225-2.607-20.616-2.446-20.616-2.446z" fill="#EBE6E9"/>
            <path d="M312.49 199.019c6.618 1.123 11.712 3.45 11.431 5.174-.28 1.725-5.896 2.206-12.513 1.043-6.618-1.123-11.712-3.45-11.431-5.174.32-1.725 5.936-2.206 12.513-1.043z" fill="#000" fill-rule="nonzero"/>
            <path d="m325.205 187.387-2.728 15.723c.04.12.04.24.04.36-.24 1.525-5.173 1.926-10.949.923-5.776-1.002-10.268-3.008-10.027-4.532.04-.12.08-.24.16-.32l6.097-21.579 17.407 9.425z" fill="#FFACAB"/>
            <path d="M323.48 197.294c-9.265-3.57-12.754-16.685-12.754-16.685l2.888.522 11.59 6.297-1.724 9.866z" fill="#000" fill-rule="nonzero" opacity=".2"/>
            <path d="M307.557 179.286c-2.246.962-5.816-.803-6.618-1.886-1.404-1.925-1.404-5.414.642-6.858 1.644-1.163 4.612-.28 6.137 1.203.08.08.24.24.28.321 4.853-4.733 3.85-10.027 3.85-10.027 7.26-.802 6.619-9.225 6.619-9.265 0 0 8.743 4.733 13.757 5.134.802 2.968.642 4.733 1.724 9.385 1.645 7.06.682 19.854-7.7 22.501-4.853 1.484-13.196.28-18.69-10.508zm.2-7.54c-.04-.041-.08-.041 0 0z" fill="#FFACAB"/>
            <path d="M304.268 174.392c-.962.642-1.283 1.926-.682 2.848.602.923 1.845 1.083 2.808.441" stroke="#F28586" stroke-linecap="round" stroke-linejoin="round"/>
            <path d="M327.29 161.076s3.45-1.323 5.656.2M329.215 165.408l1.926-1.203M317.263 166.45l2.166-1.042M312.65 163.844c-.08.481 2.327-3.169 8.865-2.286M325.365 165.729s1.043 2.286 2.607 4.652c1.685 2.527 1.204 5.054-2.647 4.493" stroke="#000" stroke-linecap="round" stroke-linejoin="round"/>
            <path stroke="#F28586" stroke-linecap="round" stroke-linejoin="round" d="m307.036 175.676-4.573-2.326"/>
            <path d="M317.103 166.33c.602-.12 1.203.642 1.283 1.645.08 1.003-.32 1.925-.962 2.045-.642.12-1.203-.641-1.284-1.644-.08-1.043.361-1.925.963-2.045zM329.456 164.927c.602-.12 1.204.641 1.284 1.644.08 1.003-.321 1.925-.963 2.046-.601.12-1.203-.642-1.283-1.645-.08-1.043.36-1.965.962-2.045zM324.282 176.759c2.006.04 3.89-.04 5.616-.16-.923 3.368-3.129 5.735-5.656 5.695-2.567-.04-4.692-2.447-5.535-5.816 1.685.16 3.57.28 5.575.28z" fill="#000" fill-rule="nonzero"/>
            <path d="M315.298 156.023c-17.206 22.42-14.118 40.429 1.845 33.45-7.34-9.947-2.687-29.239-1.845-33.45z" fill="#301010"/>
            <path d="m337.638 162.039.08 1.404-.962.16c-.2.562-.36 1.203-.36 1.845-.402-.601-1.044-1.604-2.728-2.366l-3.089-.883c-.08 0-.16-.04-.24-.04h.08-.04l7.26-.12z" fill="#000" fill-rule="nonzero"/>
            <path d="M325.566 166.17c.481-1.925 2.567-3.45 5.134-3.61 3.008-.16 5.495 1.565 5.575 3.93.08 2.327-2.246 4.373-5.254 4.573a6.2 6.2 0 0 1-3.009-.521c-.04-.04-.04-.08-.08-.12" stroke="#000" stroke-linecap="round" stroke-linejoin="round"/>
            <path d="m311.528 163.884-.08 1.404.962.04c.2.521.361 1.123.361 1.805.401-.682 1.043-1.765 2.728-2.768l3.088-1.283c.08-.04.16-.04.24-.08h-.08.04l-7.26.882z" fill="#000" fill-rule="nonzero"/>
            <path d="M318.467 163.403c-3.008.24-5.495 2.366-5.575 4.692-.08 2.367 2.246 4.091 5.254 3.81 3.008-.24 5.495-2.366 5.575-4.692.08-2.326-2.286-4.051-5.254-3.81z" stroke="#000" stroke-linecap="round" stroke-linejoin="round"/>
            <path d="M322.919 179.326a23.395 23.395 0 0 1-3.25-.321c-.4-.762-.761-1.605-.962-2.527 1.685.16 3.61.28 5.615.32 1.444 0 2.808 0 4.132-.08-.642 1.404-3.33 2.688-5.535 2.608z" fill="#EBE6E9"/>
        </g>
        <g>
            <path fill="#A2AAD6" fill-rule="nonzero" d="M392.747 232.79h45.123l-34.293 47.449-44.48-.562z"/>
            <path fill="#8289AE" fill-rule="nonzero" d="M325.285 277.872h78.372v2.487h-78.372z"/>
            <path d="M405.141 250.478c1.083-.16.922 1.484-.32 3.65-1.244 2.166-3.13 4.05-4.212 4.171-1.083.16-.923-1.484.32-3.65 1.284-2.125 3.13-4.01 4.212-4.171z" fill="#000"/>
        </g>
        <g fill="#15192D">
            <path d="M270.657 288.862h-11.992l-43.558 169.017h7.22zM432.107 289.062H444.1l43.557 168.817h-7.22zM232.554 279.998H460.13v8.864H232.554z"/>
        </g>
        <g>
            <path d="M336.957 458.28c-6.819-.32-12.033-4.773-14.239-7.7-1.283-1.726-1.644-4.373-.842-7.38.922-3.41 2.166-6.097 1.644-6.82-.722-1.042 3.61-6.176 5.896-11.51 4.934-11.552 1.203 1.403 9.426 3.53 10.548 19.13 9.505 19.291 9.505 19.291.321 4.212-5.374 10.87-11.39 10.589z" fill="#000" fill-rule="nonzero"/>
            <path d="M336.475 455.472c-6.818-.32-12.032-4.773-14.238-7.7-1.284-1.725-1.203-3.33-.321-7.822.682-3.49 1.644-5.615 1.123-6.337-.722-1.043 1.925-6.176 4.612-13.115 4.533-11.712 1.765.32 9.947 2.406 6.097 10.91 10.308 22.3 10.308 22.3-.08 4.052-5.455 10.55-11.43 10.268z" fill="#BB3354"/>
            <path d="M364.672 331.778c-5.415 28.437-17.528 70.47-20.656 87.637-.2 5.655-.642 10.187-.802 13.757-.12 2.407.802 8.062-8.062 7.942-14.279-.16-8.022-12.915-6.779-25.67 2.487-26.19 3.65-40.189 5.174-56.192.883-9.265 4.894-12.674 7.822-20.455-2.968-2.607-4.813-6.458-4.813-10.71 0-7.9 6.417-14.318 14.318-14.318 7.902 0 14.319 6.418 14.319 14.319a16.06 16.06 0 0 1-.521 3.69z" fill="#FFACAB"/>
            <path d="M365.153 328.088c0 1.283-.16 2.487-.481 3.65-1.765 9.305-4.252 20.054-6.94 30.923-19.773-10.027 2.488-41.512-13.275-47.448 1.925-.922 4.05-1.484 6.337-1.484 1.324 0 2.607.2 3.85.521 3.85 3.37 7.42 7.942 10.469 12.996.04.32.04.561.04.842z" fill="#000" fill-rule="nonzero" opacity=".2"/>
        </g>
        <g>
            <path d="M381.276 405.938c-1.002-1.443-1.002-14.559-2.486-18.209-9.346-23.383-15.963-30.643-22.621-45.282-4.493-9.867-1.324-14.96-4.332-25.95-5.896-1.645-10.268-7.06-10.268-13.517 0-7.74 6.297-14.038 14.078-14.038 5.495 0 10.268 3.169 12.594 7.781.08-.04.12-.08.2-.16 9.587 27.314 23.023 69.989 28.96 86.754 6.657 7.22 18.208 16.204 18.208 16.204s-14.76 13.196-34.333 6.417z" fill="#FFACAB"/>
            <path d="M351.837 316.497a14.345 14.345 0 0 1-6.016-3.45c.842-1.684 2.165-3.329 4.13-4.893 0 0 3.17 7.3 3.17 15.602a37.052 37.052 0 0 0-1.284-7.26z" fill="#000" fill-rule="nonzero"/>
            <path d="m380.915 407.743-.561-9.505s2.888-1.805 9.265-.642c7.58 1.364 12.113 2.527 12.113 2.527s5.816-3.29 9.586-3.29l17.086 4.653s-13.276 12.755-20.375 10.95c-7.1-1.765-11.03-4.332-17.086-3.65-6.017.642-10.028-1.043-10.028-1.043z" fill="#BB3354"/>
            <path d="M397.04 408.706s-8.785-2.206-13.638-2.527c-3.008-.2-3.168 1.805-1.684 3.048 5.695 4.693 12.554.12 16.484 1.685 3.93 1.564 14.36 5.174 21.498 3.45 7.14-1.725 11.832-6.498 12.955-12.114.642-3.288-1.764-5.936-6.257-4.211-11.912 4.492-19.613 12.674-29.359 10.669z" fill="#000" fill-rule="nonzero"/>
        </g>
        <g>
            <g fill="#313A63">
                <path d="M264.863 272.096h13.144l47.989 185.78h-7.94z"/>
                <path d="M147.052 264.42h178.282v9.749H147.052z"/>
            </g>
            <path d="M183.75 230.811c-.31 0-.574-.044-.839-.044l-58.045 5.072-.176-38.285 59.236 5.205h.397c7.763.132 13.938 6.572 13.761 14.29-.176 7.763-6.572 13.894-14.335 13.762z" fill="#5068F0"/>
            <path d="m230.106 132.893-7.85 6.351-3.044 2.558-.353.265-.176.132-.221.177a8.82 8.82 0 0 0-1.588 1.808 9.986 9.986 0 0 0-1.103 2.161c-.132.397-.264.794-.308 1.191-.044.22-.089.397-.089.618l-.088.573-2.47 20.775s5.822 10.1 6.484 9.968c12.085-2.294 10.057-11.424 10.057-11.468l-5.426-19.495 1.412-5.778 7.322-6.925c.75-.75.75-1.985 0-2.735a1.86 1.86 0 0 0-2.559-.176z" fill="#FFACAB" fill-rule="nonzero"/>
            <path d="M195.923 224.283a14.086 14.086 0 0 1-12.174 6.528c-7.762-.132-13.937-6.572-13.761-14.29a13.718 13.718 0 0 1 2.823-8.16l-.088-.045 18.304-22.098 20.334 13.277-15.438 24.788z" fill="#5068F0"/>
            <path d="M205.715 207.434c-.662 1.015-5.822-1.103-11.512-4.763-5.69-3.661-9.792-7.455-9.13-8.47" stroke="#3E52BF" stroke-linecap="round" stroke-linejoin="round"/>
            <path d="M202.363 190.982c5.69 3.661 9.792 7.454 9.13 8.469-.662 1.014-5.822-1.103-11.512-4.764-5.69-3.66-9.792-7.454-9.13-8.469.661-1.014 5.822 1.103 11.512 4.764z" fill="#000" fill-rule="nonzero"/>
            <path d="M202.54 190.453c5.116 3.264 8.777 6.66 8.16 7.586-.574.926-5.206-.97-10.322-4.278-5.116-3.264-8.777-6.66-8.16-7.587.618-.882 5.205 1.015 10.321 4.279z" fill="#DFD6DB"/>
            <path fill="#DFD6DB" d="m198.437 177.882 17.643 11.203-5.425 8.954-18.393-11.909z"/>
            <path d="M208.23 181.896c4.895 3.132 8.38 6.395 7.806 7.278-.573.882-4.984-.927-9.88-4.058-4.896-3.132-8.38-6.396-7.807-7.278.618-.882 5.028.926 9.88 4.058z" fill="#010000"/>
            <path d="M228.915 150.888c-1.102 3.573-4.543 8.293-4.19 11.292.265 2.25 1.147 5.602-.661 8.645 0 0-.22 5.866-4.455 8.954l-4.455 8.336c-.485.75-4.234-.794-8.336-3.44-4.146-2.647-7.102-5.426-6.616-6.175 0-.044.044-.044.044-.044l14.07-17.511 8.38-7.984c1.412-2.073 2.603-3.749 2.956-4.19 1.19-1.455 4.146-.794 3.263 2.117z" fill="#FFACAB"/>
            <path d="M216.61 162.003s8.071-11.997 9.13-13.276c1.235-1.455 4.102-.75 3.175 2.161-1.102 3.573-4.543 8.293-4.19 11.292.353 3 1.809 7.983-3.484 11.512" stroke="#F28586" stroke-linecap="round" stroke-linejoin="round"/>
            <g>
                <path fill="#FFACAB" d="m151.948 176.074-19.54-8.16-13.629 26.464 25.759 9.88z"/>
                <path d="m147.714 191.688 4.234-15.658-11.733-5.867c-2.646 18.305 9.748 22.848 7.499 21.525z" fill="#010000" opacity=".3"/>
                <path d="m159.755 142.2 5.116 15.305 5.161.044s2.955 4.896-2.69 7.277c.44 6.616.088 17.952-7.631 20.378-8.601 2.69-19.893-9.13-20.863-12.482-8.865-5.514-6.175-20.687-1.544-16.408-.044 0 2.911-21.525 22.451-14.115z" fill="#FFACAB"/>
                <path d="M121.426 160.063c2.558 6.042 8.424 12.79 8.424 12.79l7.851-1.455s-5.469-4.63-2.16-8.424c4.145-4.72 9.967 2.338 9.967 2.338s-.264-6.881 0-12.703c0 0-2.91 6.307-10.233 2.558-11.423-5.866-13.893-4.19-13.893-4.19s-2.162 4.013.044 9.086z" fill="#3C3C40"/>
                <path d="M167.65 135.848s-2.117 7.19-6.263 12.041c7.675-.397 13.894-4.764 6.263-12.041zM121.514 151.374s-8.204-15.394 8.116-14.732c9.395.397 15.57-.133 27.92-.089 8.689.045 2.91 8.557 2.91 8.557s-12.217-.529-13.452.97c-1.853 2.294-1.676 7.764-1.676 7.764s-1.94 5.998-6.22 5.557c-6.968-.706-17.598-8.027-17.598-8.027z" fill="#000"/>
                <path d="M153.624 129.276c8.69-.882 12.438 4.322 12.394 10.233-.044 3.352-1.896 6.44-4.366 8.733-1.015-2.646-2.03-6.88-4.808-6.837-6.131.133-24.7 1.588-23.112-4.499 10.938-.176 11.865-6.792 19.892-7.63z" fill="#000"/>
                <path d="M139.025 164.826c-1.191.97-1.368 2.78-.397 3.97a2.893 2.893 0 0 0 2.205 1.014M137.613 163.15l5.425 4.103" stroke="#F28586" stroke-linecap="round" stroke-linejoin="round"/>
                <path d="M160.902 167.826s1.588 2.999 5.822 2.426M161.431 151.462s-4.455-2.514-7.895 1.808" stroke="#000" stroke-linecap="round" stroke-linejoin="round"/>
                <path d="M160.064 155.431c.617.045 1.058.927.97 1.897-.088.97-.706 1.72-1.323 1.676-.618-.044-1.059-.926-.97-1.896.088-1.015.661-1.72 1.323-1.677z" fill="#010000"/>
            </g>
            <path fill="#15192D" d="M89.007 347.608H75.863L41.9 459.288h7.94zM123.278 347.608h13.144l33.963 111.68h-7.94z"/>
            <g>
                <path d="m85.037 309.499-.132 25.053s29.331 7.895 59.5 8.91c21.04.705 39.036-.133 39.036-.133s-28.317 21.833-25.142 38.903c-4.587 7.101-9.747 14.6-9.747 14.6l23.509 17.863s4.499-6.837 9.704-14.908c12.217 1.72 14.776-13.85 23.641-27.656 10.365-16.231 24.083-31.051 24.083-31.051 5.249-7.234 8.998-14.644 5.602-22.186-3.44-7.543-10.94-12.395-19.584-12.66l-62.412-2.293c-1.676-6.925-7.41-9.13-39.3-8.645-23.156.353-38.506 5.822-38.462 9.924.045 1.632 4.72 3.132 9.704 4.279z" fill="#2C4E4B"/>
                <path d="M166.15 398.463c-6.35-5.204-13.981-6.395-17.025-2.646-3.043 3.75-.353 10.983 5.999 16.143 6.351 5.205 13.982 6.396 17.025 2.647 3.088-3.75.397-10.983-5.998-16.144z" fill="#000" fill-rule="nonzero"/>
                <path d="m140.877 413.328 19.275 22.98 11.556-24.215-.176-.133c1.279-3.572-1.544-8.998-6.837-12.747-5.822-4.102-12.394-4.631-14.864-1.279l-.088-.044-8.866 15.438z" fill="#FFACAB"/>
                <path d="M199.628 383.51c-1.896-22.185-10.145-35.197-17.466-38.284l1.279-1.897s31.58-15.79 34.977 7.895l-18.79 32.287z" fill="#000" fill-rule="nonzero" opacity=".274"/>
                <path d="M158.255 419.767c-5.204-7.763-12.394-11.644-19.23-8.336-1.809.882-12.218 6.748-12.703 9.35-.75 3.838 9.703 5.205 15.79 10.41 6.175 5.293 9.792 15.04 16.232 19.804 3.749 2.735 7.1 8.072 11.6 8.16 7.233.132 23.994-.75 21.745-.838-1.764-.044 3.308-6.484-11.953-6.484-8.16-5.866-18.173-27.126-21.48-32.066z" fill="#363A4F"/>
                <path d="M146.038 427.177c-5.205-7.763-12.747-10.938-17.687-8.512-4.5 2.16-3 9.262 6.616 17.07 6.307 5.116 5.734 10.1 10.938 16.23 4.543 5.338 16.452 8.116 22.186 8.116 2.338 0 4.632-3.705 2.426-3.705-9.924 0-20.421-23.156-24.48-29.199z" fill="#000" fill-rule="nonzero"/>
                <path fill="#000" fill-rule="nonzero" d="M193.674 456.288h-33.566l7.983 3.793h25.583z"/>
            </g>
            <g>
                <path d="m219.3 413.063 1.367 18.701s7.19 5.293 13.497 4.367c6.705-.97 12.527-8.116 12.527-8.116l-1.853-14.996h-.176c-.618-1.147-5.91-2.117-12.483-2.161-7.013-.089-12.79.882-12.923 2.16.044-.043.044 0 .044.045z" fill="#FFACAB"/>
                <path d="M219.3 412.93v.089l.485 6.704c10.807.53 20.775-2.823 25.318-4.631l-.265-2.161h-.176c-.618-1.147-5.91-2.118-12.483-2.162-7.013-.044-12.79.927-12.879 2.162z" fill="#000" fill-rule="nonzero" opacity=".29"/>
                <path d="m243.691 393.832 3 19.451h-.044c-.177 1.147-6.572 2.03-14.423 2.03-7.984 0-14.468-.927-14.468-2.074v-.088l-3.749-17.731c-5.16-1.632-3.705-6.396-6.704-20.598-4.323-20.378-10.586-49.974-10.586-49.974l40.05-.662s4.102 23.422 10.541 43.005c4.323 13.144 5.293 22.495-3.617 26.641z" fill="#3F6B67"/>
                <path d="M232.18 342.844c5.248-7.234 6.35-16.408 2.955-23.95-3.44-7.543-10.939-12.395-19.584-12.66l-130.47-4.322-.176 32.64s29.331 7.895 59.5 8.91c21.04.705 63.383-.133 63.383-.133l24.391-.485z" fill="#3F6B67" fill-rule="nonzero"/>
                <path d="m229.577 413.68-17.334-88.347-64.485-1.235c-5.381-.088-10.277-3.22-12.703-8.027l-10.321-20.775" stroke="#2A4D4A" stroke-linecap="round" stroke-linejoin="round"/>
                <path d="M143.17 295.164s11.69 20.554-8.027 21.612" stroke="#2A4D4A" stroke-linecap="round" stroke-linejoin="round"/>
                <path d="M245.059 403.36s-15.835 2.072-30.567-7.764c2.735.706 7.058.662 14.335.662 6.616 0 11.424-.838 14.82-2.426l1.412 9.527z" fill="#000" fill-rule="nonzero" opacity=".274"/>
                <path d="M216.389 454.26s6.263.484 11.07.837c4.103.265 8.734 1.676 16.056 3 7.19 1.323 21.216 1.72 35.992 1.587 4.984-.044 8.821-.308 8.821-.308s1.897-7.72-8.336-7.543c-10.277.177-14.247-3.22-14.247-3.22s-11.468-9.35-18.657-19.363c-3.352-4.63-4.543 4.279-9.307 7.19-3.881 2.382-13.54.485-13.54.485s-9.616 6.22-7.852 17.334z" fill="#000" fill-rule="nonzero"/>
                <path d="M216.3 448.349s6.308.309 11.16.882c4.102.485 7.586 1.94 14.776 4.146 2.69.838 8.69 1.456 13.32 1.809l32.728 1.014s1.897-7.234-8.336-7.542c-10.277-.353-14.247-3.926-14.247-3.926s-10.012-10.365-16.937-20.29c-3.352-4.807-6.308 4.014-11.071 6.705-3.882 2.205-19.055-1.632-19.055-1.632s-3.396 9.395-2.337 18.834z" fill="#363A4F"/>
            </g>
            <g>
                <path d="m117.809 193.232 8.204-16.453s17.907 5.558 23.068 14.82c5.116 9.263-31.272 1.633-31.272 1.633z" fill="#DFD6DB"/>
                <path d="M153.756 226.62c-.661 8.866-.838 18.835.089 28.141 1.5 14.556 9.66 23.73 3.705 32.331-1.632 2.338-3.485 3.926-5.602 5.072l1.059 11.513c-2.162-3.794-20.51-6.528-42.476-6.176-20.774.31-32.419 3.97-35.374 7.543l-.794-12.483c-11.424-8.865-1.19-32.154 12.659-57.692 11.424-20.995 19.01-32.772 25.98-38.418l6.66-13.188s18.48 2.558 28.228 8.425a27.212 27.212 0 0 1 6.88 4.587c3.838 3.484 6.485 8.336 6.97 13.673.706 7.102-2.558 13.32-7.984 16.673z" fill="#5068F0"/>
                <path d="M151.948 292.076c-.485-3.793-18.26-6.307-39.74-5.645-21.481.661-38.507 4.322-38.021 8.115" stroke="#3E52BF" stroke-linecap="round" stroke-linejoin="round"/>
                <path d="M154.991 261.73c-33.036-17.07-20.421-54.516-20.421-54.516 13.54-2.118 20.024 5.645 21.348 14.379-4.94 16.187-2.426 29.949-.927 40.137z" fill="#010000" opacity=".2"/>
            </g>
            <g fill="#313A63">
                <path d="M115.824 346.902H102.68l-33.963 113.4h7.94zM152.698 346.902h13.188l33.963 113.4h-7.94z"/>
                <path d="M66.997 288.989c-1.455 15.923-18.57 44.769 4.19 57.472 1.059.573 2.426 1.19 4.058 1.455 7.454.309 26.509.133 48.783.133 28.802 0 52.18-.397 52.18-.838.043-3.75-1.412-12.395-17.556-9.395-9.968 1.852-26.067 10.012-33.786-.838-7.763-10.85-13.938-72.822-47.415-83.584-16.011-5.116-27.788-4.278-27.788-4.278s19.098 20.686 17.334 39.873z"/>
            </g>
            <g>
                <path stroke="#6C6C6C" fill="#FFF" d="M309.544 205.934h-86.848l-30.39 58.663h86.848z"/>
                <path fill="#080F34" d="M302.58 209.331h-76.984l-26.938 52h76.983z"/>
                <path d="M244 213.5h-16M236 228.5h-16M238 223.5h-16" stroke="#FFF" stroke-linecap="round" stroke-linejoin="round"/>
                <path d="M229 218.5h-4M221 233.5h-4M250 233.5h-4M255 213.5h-7M249 223.5h-7" stroke="#75DF86" stroke-linecap="round" stroke-linejoin="round"/>
                <path d="M257 223.5h-4M227 238.5h-13M236 238.5h-5M240 218.5h-7M281 213.5h-22M259 218.5h-15" stroke="#FFF" stroke-linecap="round" stroke-linejoin="round"/>
            </g>
            <g>
                <path d="m241.663 243.338-3.309 5.38 8.072 2.162c-.309.176-6.307 10.145-21.524 10.41-6.308.087-12.35-.883-12.35-.883s-10.41 1.191-22.275 2.955c-3.572-5.028-3.66-15.481 0-20.024h51.386z" fill="#FFACAB"/>
                <path d="M234.429 244.97c8.6-3.088 10.233-4.014 12.967-3.309 3.309.839 5.426 5.514 12.571 16.364 1.367 2.382-1.808 4.543-4.367 1.765-1.058.97-3.043 1.058-3.705.308-1.146-1.411-7.85-7.41-9.042-8.777 2.206 2.514-12.217 2.602-8.424-6.351z" fill="#FFACAB" fill-rule="nonzero"/>
                <path d="m261.555 239.103-8.072-1.544-.838-.132-.397-.088-.22-.044-.265-.044c-.75-.088-1.5-.133-2.25-.044a7.75 7.75 0 0 0-2.205.573c-.353.132-.705.309-1.058.485-.177.088-.353.177-.485.309l-.442.309-16.231 10.938c-.53.353 8.38 2.382 8.91 2.03.088-.089.22-.133.308-.221l10.145-8.645.22-.22c.045-.045.133-.09.221-.177.132-.088.265-.177.441-.265.309-.176.618-.309.97-.397a4.35 4.35 0 0 1 1.06-.132h.352l.397.044.838.044 8.16.794c1.014.088 1.852-.706 1.94-1.676.045-.926-.617-1.72-1.499-1.897z" fill="#FFACAB" fill-rule="nonzero"/>
                <path d="M242.368 244.308c2.382.309 3.529 1.059 4.102 1.676 2.382 2.558 8.425 10.983 8.69 11.336a2.002 2.002 0 0 1-.353 2.867c-.839.661-1.985.617-2.735-.045h0c-1.191-1.102-6.175-5.998-8.292-7.939-.265-.264-1.632-1.764-3.926-2.117" stroke="#F28586" stroke-linecap="round" stroke-linejoin="round"/>
                <path d="M189.925 263.054s20.024.132 24.7 0c1.543 0 2.823-4.543 2.823-10.19 0-5.513-1.235-10.012-2.735-10.188 0 0-25.23.132-28.097.132-7.1 0-9.218.088-9.218 7.19.044 7.013 5.602 12.88 12.527 13.056z" fill="#DFD6DB"/>
                <path d="M174.62 264.597s24.7.044 28.625.044c1.808 0 3.264-5.292 3.264-11.82 0-6.396-1.412-11.6-3.176-11.777h-16.099c-2.69-3.837-7.145-6.396-12.218-6.396-8.204 0-14.864 6.66-14.864 14.865-.044 8.071 6.44 14.864 14.467 15.084z" fill="#5068F0"/>
                <path d="M192.66 264.333c1.763 0 3.175-5.16 3.175-11.468 0-6.352-1.412-11.468-3.176-11.468" stroke="#3E52BF" stroke-linecap="round" stroke-linejoin="round"/>
                <path d="M127.027 223.577c9.44 10.366 31.758 32.728 38.815 37.668.044.044.088.044.132.088 2.514 1.897 5.602 3.044 8.998 3.044 8.204 0 14.864-6.66 14.864-14.864 0-4.852-2.293-9.13-5.866-11.821-2.338-2.647-18.437-21.128-25.406-34.8-.088-.177-.22-.354-.309-.53-2.955-6.837-9.747-11.6-17.643-11.6-10.63 0-19.23 8.6-19.23 19.23 0 5.293 2.16 10.1 5.645 13.585z" fill="#5068F0"/>
                <path d="M184.014 237.648c-2.338-2.647-18.437-21.128-25.406-34.801-.088-.176-.22-.353-.309-.53-2.955-6.836-9.747-11.6-17.642-11.6-3.75 0-7.278 1.059-10.233 2.956" stroke="#3E52BF" stroke-linecap="round" stroke-linejoin="round"/>
            </g>
        </g>
        <g>
            <path fill="#15192D" d="M658.789 342.576h12.815L704.7 451.4h-7.724zM625.434 342.576H612.62L579.523 451.4h7.724z"/>
            <path fill="#D78C8B" d="m555.662 244.8 12.643-16.44 28.91 22.222-12.643 16.44z"/>
            <path d="m535.77 199.32 2.805 44.228v.13c0 1.122 4.962 1.985 11.09 1.985 6.126 0 11.088-.907 11.088-1.985 0-.043 0-.13-.043-.173l2.805-44.185H535.77z" fill="#733A00"/>
            <path d="M560.106 214.336c.432 4.142 1.683 6.818 1.683 6.818l-.475 8.543s4.66-4.444 6.56-9.708c.43-1.165-1.123-7.034-3.41-10.313-1.812-2.589-4.79.302-4.358 4.66z" fill="#FFACAB"/>
            <path d="M562.22 208.554c-1.337.518-2.416 3.02-2.114 5.825.561 5.523 3.409 8.76 3.15 8.544" stroke="#F28586" stroke-linecap="round" stroke-linejoin="round"/>
            <path d="M545.479 220.938c-.518.56-2.072.216-3.97-.604a39.398 39.398 0 0 1 1.596 2.071c1.942 2.934 2.33 5.307.777 6.43-.388.258-1.079.172-1.942-.216.13.172.216.302.302.474 1.64 2.546 1.424 4.617-.172 5.394-.26.13-.561.13-.906.086 1.64 2.2 1.64 4.186.13 4.962-1.77.907-6.905-2.07-9.235-6.213-1.208-2.158-.086-3.582 1.295-4.445-1.252-1.38-2.244-2.847-2.805-4.142-1.036-2.46.56-3.754 2.157-4.444-.56-.777-1.035-1.554-1.294-2.244-.734-1.726-.388-3.323.216-4.574-.26-.302-.475-.56-.648-.863-2.675-3.926 5.308-6.257 5.308-6.257l.215 3.452s4.359 2.417 6.904 4.963c2.503 2.545 3.366 4.79 2.072 6.17z" fill="#FFACAB"/>
            <path d="M530.678 212.524c7.897 6.817 13.506 9.752 14.8 8.37 1.295-1.38.389-3.796-2.157-6.342" stroke="#F28586" stroke-linecap="round" stroke-linejoin="round"/>
            <path d="M531.757 214.034c-2.244 2.373 1.553 7.12 1.855 7.465 3.28 4.056 8.803 8.37 10.27 7.335 1.553-1.122 1.424-3.84-2.028-8.241" stroke="#F28586" stroke-linecap="round" stroke-linejoin="round"/>
            <path d="M532.706 220.334c-1.64.647-3.193 1.898-2.157 4.444 1.812 4.358 9.234 10.788 11.52 9.752 1.64-.777 1.684-3.236.044-5.782" stroke="#F28586" stroke-linecap="round" stroke-linejoin="round"/>
            <path d="M533.354 228.877c-1.554.82-2.633 2.072-1.295 4.445 2.33 4.142 7.465 7.12 9.234 6.213 1.597-.82 1.77-2.589-.13-4.962" stroke="#F28586" stroke-linecap="round" stroke-linejoin="round"/>
            <path d="M534.13 199.967c0 .044.043.087.043.13-1.121.733-1.596 1.38-1.596 1.726 0 1.035 7.594 1.855 17 1.855 9.407 0 17.002-.82 17.002-1.855 0-.389-.389-1.122-1.51-1.899 0-.043-.044-.086-.044-.086v-3.236c.043-.043.043-.087.043-.13 0-.906-6.947-1.683-15.49-1.683-8.544 0-15.49.734-15.49 1.683 0 .043 0 .043.042.087v3.408z" fill="#15120E" fill-rule="nonzero"/>
            <g>
                <path fill="#FFF" d="m565.457 176.149 10.097-2.848 2.33 8.285-10.097 2.848z"/>
                <path fill="#FFACAB" d="m580.257 181.154 19.072-7.94 13.29 25.804-25.113 9.622z"/>
                <path d="m586.082 203.376-5.825-22.222 11.866-4.962c4.272 3.495 5.092 11.262 1.597 18.468-1.856 3.927-4.617 6.947-7.638 8.716z" fill="#000" fill-rule="nonzero" opacity=".341"/>
                <path d="m572.663 148.188-4.617 14.283-6.214.517s-1.726 3.495 3.452 6.343c-.518 2.46-1.035 6.947-1.035 6.947s.129.69 4.573.13c2.633-.345 4.186-.69 4.186-.69s-.173 2.545-2.2 4.012c-2.762 1.985-3.927 1.856-3.927 1.856s.949 10.054 6.084 11.736c8.069 2.676 17.993-4.703 21.877-10.614 6.17-9.32 5.005-25.588-.216-20.798-.043.043-2.934-20.971-21.963-13.722z" fill="#FFACAB"/>
                <path d="M609.9 157.12s12.126-14.369-7.896-14.369c-9.018 0-15.188-.13-27.184-.086-8.457.043-3.107 8.414-3.107 8.414s12.169-.604 13.334.863c1.812 2.244 1.64 7.551 1.64 7.551l23.214-2.373z" fill="#000" fill-rule="nonzero"/>
                <path d="M610.16 166.958c-2.33 7.077-7.81 11.09-7.81 11.09l-8.156-1.381s5.35-4.488 2.115-8.242c-4.013-4.617-9.709 2.287-9.709 2.287s.259-8.285.043-13.592l23.43-.432c0 .044 1.985 4.488.087 10.27z" fill="#3C3C40"/>
                <path d="M592.857 170.237a2.735 2.735 0 0 1 .388 3.84 2.83 2.83 0 0 1-2.157.993M594.281 168.598l-5.308 4.013" stroke="#F28586" stroke-linecap="round" stroke-linejoin="round"/>
                <path d="M571.023 157.206s4.703-2.243 7.724 1.77" stroke="#000" stroke-linecap="round" stroke-linejoin="round"/>
                <path d="M572.36 161.09c-.603.043-1.035.863-.949 1.855.087.95.69 1.683 1.295 1.597.604-.043 1.035-.863.95-1.856-.087-.949-.648-1.683-1.295-1.596z" fill="#000" fill-rule="nonzero"/>
            </g>
            <g>
                <path d="M670.224 293.99h.345v12.168c-3.193-3.452-19.978-6.343-40.215-6.645-21.446-.345-39.094 2.33-40.863 6.041v-11.219c-2.157-1.079-4.142-2.632-5.911-4.919-6.56-8.37.56-17.303.733-31.499.086-9.104-.992-18.77-2.416-27.443a18.73 18.73 0 0 1-9.32-16.224 18.64 18.64 0 0 1 5.566-13.333c4.315-4.402 15.318-11.737 36.159-2.632 8.457 3.71 16.828 16.396 32.233 41.51 13.03 21.401 41.596 44.875 23.689 54.195z" fill="#199762"/>
                <path d="M589.318 294.033c.044-4.013 18.425-6.947 40.992-6.602 22.61.345 40.863 3.884 40.777 7.853" stroke="#11744A" stroke-linecap="round"/>
                <path d="M572.576 212.998c0-.215.044-.474.044-.69 0-.086.043-.172.043-.259.043-.216.043-.431.086-.69 0-.086.043-.173.043-.26.043-.215.086-.474.13-.69 0-.086.043-.129.043-.215.043-.216.086-.475.172-.69 0-.044.044-.13.044-.173.086-.26.129-.475.215-.734 0-.043.043-.086.043-.13.087-.258.173-.517.26-.733 0-.043.042-.043.042-.086.087-.259.216-.518.303-.777 0 0 0-.043.043-.043.13-.259.215-.518.345-.777v-.043l.388-.776a17.828 17.828 0 0 1 3.28-4.315c3.408-3.366 8.068-5.437 13.203-5.437 2.071 0 4.1.345 5.955.992l.388.13c.043 0 .043.043.087.043 8.37 2.934 14.498 12.47 14.498 23.775 0 13.635-8.889 24.725-19.849 24.725-3.193 0-6.214-.95-8.932-2.632a193.311 193.311 0 0 0-1.64-12.039c-4.832-2.805-8.284-7.767-9.147-13.549l-.13-1.165v-.173c-.043-.431-.043-.906-.043-1.337 0-.345 0-.647.043-.95.043-.129.043-.215.043-.302z" fill="#DFD6DB"/>
                <path d="M584.097 261.326c.087-1.122.173-2.244.173-3.452.086-9.105-.993-18.77-2.416-27.443-2.115-1.251-4.013-2.891-5.48-4.876 6.774-11.866 17.432-21.359 30.636-19.288 0 0 .647 39.74-22.913 55.059z" fill="#000" fill-rule="nonzero" opacity=".307"/>
            </g>
            <g>
                <path d="m662.672 311.25.13 24.422s-28.608 7.68-57.993 8.673c-20.54.69-38.058-.13-38.058-.13l33.614 48.328-27.228 21.79-53.85-70.592c-5.092-7.033-6.214-15.965-2.891-23.344 3.322-7.335 10.658-12.081 19.072-12.34l53.85-1.726c-.043-.13-.043-.26-.043-.389.043-4.013 17.821-6.99 40.388-6.645 22.61.346 40.863 3.884 40.777 7.854 0 1.553-2.892 2.977-7.768 4.099z" fill="#38219E"/>
                <path d="M580.214 395.262c7.508-6.128 16.483-7.508 20.064-3.107 3.582 4.401.432 12.902-7.076 19.029-7.508 6.127-16.483 7.508-20.065 3.107-3.581-4.402-.431-12.902 7.077-19.03z" fill="#000" fill-rule="nonzero"/>
                <path d="m607.83 409.933-20.151 23.99-12.082-25.328.172-.13c-1.337-3.754 1.597-9.406 7.163-13.333 6.084-4.272 12.945-4.876 15.534-1.38l.086-.044 9.278 16.225z" fill="#FFACAB"/>
                <path d="M591.346 418.692c5.092-7.551 12.082-11.348 18.727-8.112 1.77.863 11.91 6.602 12.384 9.104.69 3.754-9.45 5.049-15.404 10.184-5.998 5.177-9.536 14.627-15.836 19.287-3.625 2.676-6.904 7.854-11.305 7.94-7.077.13-23.387-.734-21.187-.82 1.683-.043-3.236-6.343 11.65-6.343 7.983-5.696 17.735-26.407 20.971-31.24z" fill="#363A4F"/>
                <path d="M620.472 417.613c-4.79-2.33-12.168.734-17.216 8.328-3.797 5.696-13.506 26.925-22.87 28.35h-23.56V458h24.941c5.61 0 17.174-2.718 21.618-7.94 5.049-5.954 4.488-10.787 10.658-15.792 9.363-7.638 10.787-14.542 6.43-16.656z" fill="#000" fill-rule="nonzero"/>
                <path d="M550.657 333.385c10.7 0 21.272-2.07 21.704 11.004a341.374 341.374 0 0 1-5.567-.173l1.252 1.812c-7.638 3.193-14.757 15.922-16.009 40.604l-21.23-27.788v-.087c.044-13.98 8.89-25.372 19.85-25.372z" fill="#000" fill-rule="nonzero" opacity=".095"/>
            </g>
            <g>
                <path d="m531.843 412.133-1.337 18.21s-6.99 5.134-13.118 4.271c-6.515-.95-12.211-7.94-12.211-7.94l1.77-14.627h.172c.604-1.122 5.782-2.028 12.168-2.114 6.86-.087 12.47.863 12.556 2.07v.13z" fill="#FFACAB"/>
                <path d="M531.843 412.047v.086l-.474 6.559c-10.529.518-20.237-2.719-24.682-4.53l.26-2.072h.172c.604-1.122 5.782-2.028 12.168-2.114 6.817-.087 12.47.82 12.556 2.07zM534.648 451.615s-6.084.475-10.787.777c-4.013.258-8.5 1.64-15.664 2.934-6.99 1.294-20.668 1.683-35.08 1.51a157.13 157.13 0 0 1-8.587-.302s-1.812-7.551 8.155-7.379c10.011.173 13.895-3.15 13.895-3.15s11.175-9.104 18.209-18.856c3.236-4.53 4.444 4.142 9.061 6.99 3.797 2.33 7.033-.086 7.033-.086s17.95 6.559 13.765 17.562z" fill="#000" fill-rule="nonzero"/>
                <path d="M534.734 445.833s-6.17.302-10.873.863c-4.013.474-7.379 1.855-14.412 4.013-2.632.82-8.457 1.38-12.988 1.769l-31.888.992s-1.855-7.033 8.112-7.378c10.011-.345 13.895-3.84 13.895-3.84s9.751-10.098 16.483-19.763c3.236-4.66 6.127 3.927 10.787 6.516 3.797 2.114 18.554-1.597 18.554-1.597s3.41 9.234 2.33 18.425z" fill="#363A4F"/>
                <path d="M536.201 409.976v.086c0 1.38-7.68 2.46-17.173 2.46-9.32 0-16.915-1.08-17.13-2.417h-.044l12.988-84.573 39.05.647-17.69 83.797z" fill="#5D3DE3"/>
                <path d="M519.287 343.741c-5.092-7.033-6.214-15.965-2.891-23.344 3.322-7.335 10.658-12.081 19.072-12.34l127.161-4.229.173 31.844s-28.608 7.68-57.993 8.673c-20.54.69-61.747-.13-61.747-.13l-23.775-.474z" fill="#5D3DE3" fill-rule="nonzero"/>
                <path d="M603.73 300.549s-12.642 20.107 7.983 20.798" stroke="#38219E" stroke-linecap="round" stroke-linejoin="round"/>
                <path d="m521.79 412.78 16.871-86.083 62.869-1.208c5.264-.086 10.01-3.107 12.384-7.81l9.147-18.425" stroke="#38219E" stroke-linecap="round" stroke-linejoin="round"/>
            </g>
            <g>
                <path stroke="#6C6C6C" fill="#FFF" fill-rule="nonzero" d="M415.9 210.28h84.66l29.6 57.173h-84.616z"/>
                <path d="M425 216.5h19M428 221.5h8M431 227.5h5M443 253.5h5M434 233.5h14" stroke="#080F34" stroke-linecap="round" stroke-linejoin="round"/>
                <path d="M437 239.5h19" stroke="#75DF86" stroke-linecap="round" stroke-linejoin="round"/>
                <path d="M440 245.5h30M478 245.5h30M452 233.5h6M461 227.5h5M473 253.5h5M440 227.5h17" stroke="#080F34" stroke-linecap="round" stroke-linejoin="round"/>
                <path d="M452 253.5h17" stroke="#75DF86" stroke-linecap="round" stroke-linejoin="round"/>
                <path d="M459 221.5h11" stroke="#080F34" stroke-linecap="round" stroke-linejoin="round"/>
                <path d="M474 221.5h24" stroke="#75DF86" stroke-linecap="round" stroke-linejoin="round"/>
                <path d="M448 216.5h10" stroke="#080F34" stroke-linecap="round" stroke-linejoin="round"/>
                <path d="M440 221.5h15" stroke="#75DF86" stroke-linecap="round" stroke-linejoin="round"/>
                <path d="M482 216.5h6" stroke="#080F34" stroke-linecap="round" stroke-linejoin="round"/>
                <path d="M462 216.5h16" stroke="#75DF86" stroke-linecap="round" stroke-linejoin="round"/>
            </g>
            <g>
                <path d="m487.529 246.741 3.236 5.265-7.853 2.114c.302.173 6.127 9.924 20.97 10.14 6.128.086 12.04-.863 12.04-.863s10.14 2.589 19.848 3.625c3.495-4.92 2.546-16.915 1.812-20.28H487.53z" fill="#FFACAB"/>
                <path d="M494.605 248.338c-8.37-3.02-10.01-3.884-12.642-3.236-3.237.82-5.265 5.393-12.255 15.965-1.337 2.287 1.77 4.401 4.272 1.726.992.95 2.934 1.036 3.625.302 1.121-1.38 7.637-7.206 8.802-8.587.992-1.165 1.985-1.941 3.797-1.553 1.424.302-.604 2.114.906 2.718h.043c1.899.734 3.97-.13 4.704-1.941.69-1.813 2.243-2.028.345-2.762-.216-.13-.302.345-1.597-2.632z" fill="#FFACAB" fill-rule="nonzero"/>
                <path d="m468.198 242.642 7.853-1.467.82-.13.388-.086.216-.043.259-.043c.734-.086 1.467-.13 2.2-.043a9.257 9.257 0 0 1 2.158.518c.345.13.69.302 1.036.474.172.087.345.173.474.302l.432.302 15.836 10.658c1.467.993-3.193-.388-4.186 1.08-.992 1.466-3.02 1.854-4.487.862-.087-.086-.216-.13-.302-.216l-9.882-8.414-.215-.216c-.044-.043-.13-.086-.216-.172-.13-.086-.26-.173-.432-.26a3.663 3.663 0 0 0-.949-.387 4.256 4.256 0 0 0-1.036-.13h-.345l-.388.043-.82.043-7.94.777c-.992.086-1.812-.647-1.898-1.64-.086-.863.56-1.682 1.424-1.812z" fill="#FFACAB" fill-rule="nonzero"/>
                <path d="M486.882 247.69c-2.33.303-3.452 1.036-3.97 1.64-2.287 2.46-8.198 10.701-8.457 11.047-.69.863-.561 2.114.345 2.804.82.648 1.942.604 2.675-.043h0c1.165-1.035 6.041-5.825 8.069-7.767.259-.259 1.597-1.726 3.84-2.07" stroke="#F28586" stroke-linecap="round" stroke-linejoin="round"/>
                <path d="M604.55 227.497c-9.19 10.097-30.938 31.887-37.842 36.72-.043.043-.086.043-.13.086a14.4 14.4 0 0 1-8.759 2.977 14.474 14.474 0 0 1-14.498-14.498c0-4.703 2.244-8.889 5.739-11.52 2.287-2.59 17.993-20.583 24.725-33.916.086-.173.215-.345.302-.518 2.89-6.645 9.493-11.305 17.216-11.305 10.356 0 18.77 8.414 18.77 18.77 0 5.135-2.114 9.838-5.523 13.204z" fill="#DFD6DB"/>
                <path d="m558.208 267.237-.043.087h-27.357c-.173.086-.345.13-.518.13-1.77 0-3.193-5.136-3.193-11.522 0-6.256 1.38-11.305 3.107-11.478h15.706c2.632-3.754 6.99-6.213 11.91-6.213a14.474 14.474 0 0 1 14.498 14.498c0 7.896-6.3 14.283-14.11 14.498z" fill="#DFD6DB"/>
                <path d="M540.646 267.496c-1.77 0-3.193-5.135-3.193-11.52 0-6.344 1.424-11.522 3.193-11.522" stroke="#C8B8C1" stroke-linecap="round" stroke-linejoin="round"/>
            </g>
            <g fill="#313A63">
                <path d="M492.362 276.687h-12.816l-46.73 181.055h7.723z"/>
                <path d="M432.815 267.28h152.232v9.493H432.815z"/>
            </g>
            <g fill="#313A63">
                <path d="M632.64 347.668h12.816l33.095 110.549h-7.723zM596.74 347.668h-12.815l-33.096 110.549h7.724z"/>
                <path d="M680.277 291.228c1.424 15.534 18.123 43.625-4.099 56.008-1.035.561-3.063.993-3.926.993-7.293.302-25.804.56-47.551.56-28.09 0-50.831-.388-50.831-.82-.042-3.624 1.382-12.08 17.131-9.147 9.709 1.813 25.372 9.752 32.923-.82 7.551-10.571 13.55-70.98 46.213-81.466 15.577-5.005 27.098-4.185 27.098-4.185s-18.684 20.194-16.958 38.877z"/>
            </g>
        </g>
        <path d="M270.252 104.656c.292-1.142 1.55-1.897 2.685-1.586.558.147 1.034.51 1.33 1.021a2.21 2.21 0 0 1 .233 1.677l-5.515 21.477a2.195 2.195 0 0 1-2.675 1.59 2.224 2.224 0 0 1-1.573-2.703zm-8.989 3.47c.73-.74 2.087-.738 2.819-.002.378.384.584.89.584 1.429 0 .54-.207 1.046-.583 1.428l-5.272 5.335 5.271 5.336c.377.381.584.889.584 1.426a2.02 2.02 0 0 1-.582 1.425 1.98 1.98 0 0 1-2.818.004l-6.682-6.765a2.044 2.044 0 0 1-.584-1.427c0-.53.213-1.05.584-1.426zm24.154 6.764-6.681-6.764c-.729-.739-2.085-.74-2.82 0-.376.381-.583.888-.583 1.427 0 .541.208 1.049.583 1.426l5.272 5.337-5.272 5.336c-.376.38-.583.887-.583 1.426 0 .539.207 1.046.585 1.429a1.974 1.974 0 0 0 2.816-.002l6.682-6.763c.371-.375.584-.895.584-1.426 0-.531-.212-1.051-.583-1.426zM525.173 23.138c.2-.784 1.065-1.303 1.846-1.09.384.101.71.35.915.702.204.35.262.76.16 1.153l-3.792 14.765a1.51 1.51 0 0 1-1.84 1.093 1.529 1.529 0 0 1-1.08-1.858zm-6.18 2.386c.503-.509 1.435-.507 1.938-.001.26.264.402.612.402.982 0 .371-.142.72-.401.982l-3.624 3.668 3.623 3.668c.26.262.402.611.402.98 0 .37-.142.719-.4.98a1.36 1.36 0 0 1-1.938.003l-4.594-4.651a1.405 1.405 0 0 1-.401-.98c0-.366.146-.723.401-.981zm16.607 4.65-4.594-4.65c-.501-.508-1.434-.509-1.939 0-.258.262-.4.61-.4.981 0 .372.142.721.4.98l3.625 3.67-3.625 3.668c-.258.262-.4.61-.4.98s.142.72.402.983a1.357 1.357 0 0 0 1.936-.001l4.594-4.65a1.404 1.404 0 0 0 0-1.961z" fill="#FDB92C" fill-rule="nonzero"/>
    </g>
</svg>
