<?xml version="1.0" encoding="utf-8"?>
<!-- Generator: Adobe Illustrator 25.4.8, SVG Export Plug-In . SVG Version: 6.00 Build 0)  -->
<svg version="1.1" id="Layer_1" xmlns="http://www.w3.org/2000/svg" xmlns:xlink="http://www.w3.org/1999/xlink" x="0px" y="0px"
	 viewBox="0 0 591.69 177.3" style="enable-background:new 0 0 591.69 177.3;" xml:space="preserve">
<style type="text/css">
	.st0{fill:#FFCA15;}
	.st1{fill:#323031;}
</style>
<g>
	<g>
		<rect class="st0" width="591.69" height="177.3"/>
		<g>
			<path class="st1" d="M340.98,80.8c0-10.85,10.03-18.13,19.39-18.13c11.38,0,18.45,8.03,18.45,20.96v49.08h12.89V82.06
				c0-9.37,5.18-19.39,19.7-19.39c11.3,0,18.6,8.23,18.6,20.96v49.08h12.89V83.63c0-20.39-11.46-33.06-29.92-33.06
				c-10.87,0-20.27,4.67-26.13,12.91c-3.85-6.28-11.02-12.91-24.12-12.91c-8.85,0-16.43,3.15-21.74,8.95v-7.85H328.1v81.04h12.89
				V80.8z"/>
			<path class="st1" d="M193.62,91c-0.08-12.26-3.92-22.63-11.12-30c-6.77-6.93-16.24-10.75-26.65-10.75
				c-23.61,0-40.75,17.6-40.75,41.85c0,24.55,16.63,41.7,40.44,41.7c15.78,0,28.07-6.8,35.55-19.67l0.64-1.11l-11.05-7.1l-0.71,1.2
				c-5.83,9.94-13.59,14.57-24.44,14.57c-15.11,0-26.72-11.31-27.51-26.53h65.6V91z M128.61,83.54
				c3.09-12.56,13.95-21.19,26.92-21.19c12.84,0,22.71,8.45,24.98,21.19H128.61z"/>
			<polygon class="st1" points="73.28,63.77 110.18,63.77 110.18,51.67 60.39,51.67 60.39,132.86 73.28,132.86 			"/>
			<path class="st1" d="M494.33,133.81c15.78,0,28.07-6.8,35.55-19.67l0.64-1.11l-11.05-7.1l-0.71,1.2
				c-5.83,9.94-13.59,14.57-24.44,14.57c-15.11,0-26.72-11.31-27.51-26.53h65.6V91c-0.08-12.26-3.92-22.63-11.12-30
				c-6.77-6.93-16.24-10.75-26.65-10.75c-23.61,0-40.75,17.6-40.75,41.85C453.89,116.66,470.52,133.81,494.33,133.81z M467.41,83.54
				c3.09-12.56,13.95-21.19,26.92-21.19c12.84,0,22.71,8.45,24.98,21.19H467.41z"/>
			<rect x="298.49" y="27.73" class="st1" width="12.89" height="104.97"/>
			<path class="st1" d="M244,134.12c9.41,0,18.36-3.13,25.04-8.67v7.42h12.73V51.82h-12.73v7.45c-6.8-5.57-15.75-8.71-25.04-8.71
				c-11.52,0-22.01,4.29-29.54,12.07c-7.43,7.68-11.53,18.26-11.53,29.79c0,11.52,4.09,22.07,11.53,29.71
				C221.98,129.86,232.47,134.12,244,134.12z M215.82,92.42c0-16.51,11.85-28.97,27.55-28.97c16.29,0,27.24,11.64,27.24,28.97
				c0,17.23-10.95,28.81-27.24,28.81C227.67,121.23,215.82,108.85,215.82,92.42z"/>
		</g>
	</g>
</g>
</svg>
